<?xml version="1.0" standalone="no"?>
<!DOCTYPE svg PUBLIC "-//W3C//DTD SVG 20010904//EN"
 "http://www.w3.org/TR/2001/REC-SVG-20010904/DTD/svg10.dtd">
<svg version="1.0" xmlns="http://www.w3.org/2000/svg"
 width="1024.000000pt" height="1024.000000pt" viewBox="0 0 1024.000000 1024.000000"
 preserveAspectRatio="xMidYMid meet">
<metadata>
Created by potrace 1.14, written by Peter Selinger 2001-2017
</metadata>
<g transform="translate(0.000000,1024.000000) scale(0.100000,-0.100000)"
fill="#000000" stroke="none">
<path d="M0 7220 c0 -2630 2 -3020 15 -3020 11 0 15 17 17 68 3 73 -2 69 81
71 l37 1 0 60 0 60 54 0 54 0 7 65 7 65 54 0 54 0 0 60 0 60 60 0 60 0 0 135
0 135 60 0 60 0 0 114 0 115 51 3 52 3 1 65 1 65 63 3 62 3 0 129 0 130 55 0
54 0 3 73 3 72 58 0 57 0 0 73 0 72 65 0 65 0 0 -140 0 -140 -55 0 -55 0 0
-124 c0 -68 -3 -131 -6 -140 -5 -12 -21 -16 -65 -16 l-59 0 0 -65 0 -65 -60 0
-60 0 0 -125 0 -125 -61 0 -61 0 4 -60 3 -60 -57 0 -58 0 0 -69 c0 -64 -2 -70
-22 -74 l-23 -4 23 -2 c20 -1 22 -6 22 -57 0 -51 -2 -55 -23 -54 -12 1 -39 2
-59 1 l-38 -1 0 -61 0 -61 -55 4 -55 3 0 -30 c0 -16 -3 -47 -6 -68 l-7 -37
-56 0 -56 0 3 -60 4 -60 -59 -1 c-47 -1 -53 -3 -28 -9 17 -4 23 -8 15 -9 -13
-1 -13 -2 0 -11 10 -6 11 -10 3 -10 -19 0 -16 -18 5 -24 9 -3 1 -4 -19 -3 -36
3 -37 2 -43 -42 -3 -24 -6 -66 -6 -92 l0 -49 -49 0 c-59 0 -57 4 -66 -138 -4
-56 -11 -105 -16 -108 -5 -3 -9 -784 -9 -1860 l0 -1854 5120 0 5120 0 0 1790
0 1790 -24 0 c-23 0 -24 3 -31 114 -4 63 -4 120 0 125 3 6 17 11 31 11 l24 0
0 3205 0 3205 -5120 0 -5120 0 0 -3020z m5313 1720 l2 -135 -62 -3 -62 -3 -3
-132 -3 -132 -25 -2 c-14 -1 -64 -5 -112 -8 l-88 -7 0 -73 0 -73 -120 -7 -120
-7 0 -124 0 -124 -60 0 -60 0 0 -125 0 -125 -65 0 -64 0 -3 -62 -3 -63 -57 -3
-58 -3 0 66 c0 65 0 65 -29 65 -16 0 -43 3 -60 6 -26 6 -31 11 -31 35 0 31 20
36 32 9 4 -10 7 -6 7 13 1 15 -3 27 -9 27 -5 0 -10 -4 -10 -10 0 -5 -7 -7 -15
-4 -8 4 -15 14 -15 25 0 15 -9 18 -62 21 l-63 3 0 60 0 60 -61 3 -62 3 -7 124
-7 125 -59 0 -59 0 0 130 0 130 -50 0 -50 0 0 70 0 70 109 0 109 0 7 -67 6
-68 60 3 59 4 0 -66 0 -66 65 0 65 0 1 -87 c3 -184 -1 -167 44 -175 22 -3 77
-7 123 -7 l82 -1 0 135 0 135 65 0 65 0 0 65 0 65 60 0 60 0 0 65 0 65 110 0
110 0 0 85 0 85 65 0 65 0 0 73 0 74 120 -1 120 -1 3 -135z m-1580 -93 c11
-77 3 -87 -64 -87 l-59 0 0 65 0 65 59 0 58 0 6 -43z m2577 -22 l0 -65 -60 0
-60 0 0 65 0 65 60 0 60 0 0 -65z m-5912 -160 l-2 -40 167 3 167 3 2 -43 c1
-24 1 -53 0 -65 l-1 -23 185 0 184 0 0 -65 0 -65 185 0 185 0 0 -71 0 -70 125
3 124 3 3 -65 3 -65 123 3 122 4 0 -61 0 -61 125 0 125 0 0 -65 0 -65 140 0
140 0 0 -60 0 -60 160 0 161 0 -3 -107 -3 -108 -152 -3 -153 -3 0 43 c0 71 -2
72 -144 65 -69 -4 -132 -4 -141 -1 -11 5 -15 21 -15 60 l0 54 -68 0 -68 0 4
-61 4 -60 -53 3 -54 3 0 54 0 54 -68 -2 -67 -2 0 60 0 61 -59 0 c-58 0 -59 1
-65 31 -3 17 -6 49 -6 71 l0 40 -127 -4 -127 -3 3 -62 2 -63 -35 -2 c-92 -4
-82 -16 -85 94 l-1 37 -112 3 -113 3 -3 83 -3 82 -58 0 -59 0 -6 45 -7 45 -65
0 -64 0 0 55 0 55 -170 0 -170 0 0 65 0 65 -60 0 -60 0 0 63 0 63 -60 -4 -60
-4 0 70 0 71 58 3 c53 3 57 1 65 -22 4 -14 6 -43 5 -65z m5782 0 l0 -95 -50 0
-50 0 0 -105 0 -105 -60 0 -59 0 -3 -57 -3 -58 -57 -3 -58 -3 0 -52 c0 -29 -4
-57 -8 -63 -4 -7 -35 -15 -69 -19 l-63 -7 0 -65 0 -65 -95 7 c-65 5 -95 3 -95
-4 0 -6 8 -8 18 -5 9 3 6 -2 -8 -11 -14 -9 -17 -14 -7 -11 13 4 17 -1 17 -23
0 -16 6 -31 13 -34 25 -9 0 -15 -84 -19 l-86 -4 -7 95 c-3 53 -6 135 -6 184
l0 87 58 2 c31 1 79 3 106 3 48 0 50 1 51 30 1 17 2 47 3 68 l2 37 60 0 60 0
0 65 0 65 65 0 64 0 3 63 3 62 58 -1 57 -1 0 68 0 69 115 0 115 0 0 -95z
m3515 52 c4 -18 5 -49 3 -68 l-3 -34 -62 1 -63 1 0 -66 0 -66 -57 0 -58 0 -3
-62 -3 -63 -169 0 -170 0 0 -55 0 -55 -65 0 c-45 0 -65 -4 -66 -12 -1 -7 -2
-17 -4 -23 -1 -5 -3 -18 -3 -27 -2 -13 -14 -18 -59 -20 l-58 -3 0 -85 0 -85
-120 -5 c-134 -6 -122 4 -124 -92 l-1 -48 -55 0 -55 0 0 65 0 65 -99 0 -99 0
6 -65 5 -65 -112 0 -111 0 0 -61 0 -60 -62 2 c-70 3 -64 9 -67 -79 l-1 -33
-47 3 -48 3 -3 58 -3 57 -63 0 c-63 0 -64 0 -70 -31 -3 -17 -6 -42 -6 -55 0
-28 3 -28 -165 -28 l-120 -1 -3 -52 -3 -53 -125 0 -124 0 0 -40 c0 -34 -4 -41
-25 -46 -46 -11 -53 -1 -56 83 -2 43 -3 111 -1 151 l4 72 159 0 159 0 0 60 0
60 145 0 145 0 0 65 0 65 130 0 130 0 0 55 0 55 120 0 120 0 0 65 0 65 135 0
135 0 0 70 0 70 190 0 190 0 -2 28 c-1 15 -1 44 0 65 l2 37 180 0 179 0 3 63
3 62 170 2 170 2 3 60 3 61 59 0 c59 0 59 0 65 -33z m-6445 -552 l0 -63 60 5
60 6 0 -61 c0 -49 3 -62 18 -66 9 -3 88 -4 175 -1 l157 4 0 -73 0 -74 -35 8
c-20 4 -99 6 -175 3 l-140 -6 0 -59 0 -59 -52 3 -53 3 -3 118 c-2 82 -6 119
-15 122 -7 2 -46 6 -87 8 l-75 3 -3 52 -3 52 -59 0 -59 0 -6 55 c-11 86 -15
84 142 87 76 2 141 2 146 0 4 -2 7 -32 7 -67z m3710 -6 l0 -69 -59 0 -59 0 -7
-56 -7 -55 -84 3 -84 3 0 -62 0 -63 -65 0 -65 0 0 -65 0 -65 -60 0 -60 0 0 60
0 60 -57 1 c-32 0 -79 0 -105 -1 l-48 -1 0 64 0 65 103 7 c56 4 132 5 170 3
l67 -3 0 58 0 57 59 0 58 0 7 56 c3 30 4 59 1 64 -5 9 269 20 288 12 4 -2 7
-34 7 -73z m-4322 -2059 c86 0 194 -3 240 -7 l82 -6 0 -63 0 -64 70 0 70 0 0
-124 c0 -122 0 -123 23 -120 12 2 41 5 64 7 l41 5 7 -129 8 -129 138 0 139 0
0 -114 0 -115 33 -3 c17 -2 56 -1 85 0 45 3 52 7 52 25 0 14 3 18 8 10 5 -8
45 -13 117 -15 l110 -3 3 -45 c2 -24 1 -59 -3 -77 -6 -31 -8 -33 -50 -33 l-45
0 0 -60 0 -60 -230 0 -230 0 0 -65 0 -65 -202 0 -203 0 3 65 4 65 -66 0 -66 0
0 65 0 65 -67 2 c-38 1 -93 2 -123 3 l-55 0 -1 55 -1 55 -62 -4 -61 -3 0 126
0 126 -65 0 -65 0 0 190 0 189 63 3 62 3 4 175 c3 96 7 151 8 123 l4 -53 157
0z m4852 -246 c14 -1 42 -2 63 -2 l37 -2 0 -191 0 -190 -62 2 -63 3 -3 -128
-3 -127 -57 2 -57 3 -5 -55 -5 -54 -122 -3 -123 -3 0 -64 0 -65 -75 0 -75 0 0
-65 0 -65 -196 0 -196 0 4 63 3 62 -170 2 c-93 1 -198 2 -232 2 l-63 1 0 59 0
60 -47 3 -48 3 -7 65 c-4 36 -6 71 -3 78 3 8 33 12 100 12 57 0 95 4 95 10 0
6 8 10 18 10 14 0 15 -2 2 -10 -8 -5 -10 -10 -4 -10 5 0 15 5 22 12 9 9 12 7
12 -10 0 -21 4 -22 85 -22 l85 0 0 115 0 115 139 0 139 0 7 128 7 127 64 -3
64 -4 2 104 c0 56 0 113 -1 126 -2 21 2 22 69 22 l70 0 0 59 0 58 92 7 c50 3
132 6 183 6 51 0 120 3 154 6 57 6 61 9 63 33 1 14 5 -44 8 -129 l5 -155 25
-1z m-135 266 c3 -5 1 -10 -4 -10 -6 0 -11 5 -11 10 0 6 2 10 4 10 3 0 8 -4
11 -10z m1385 -155 l0 -65 -63 0 -63 0 1 58 0 57 45 6 c87 11 80 16 80 -56z
m-7400 -5 l0 -60 -65 0 -65 0 0 60 0 60 65 0 65 0 0 -60z m3373 -49 c4 -1 7
-25 7 -55 l0 -54 -47 -4 c-69 -6 -73 -3 -73 57 0 62 8 66 113 56z m581 -7 c12
-5 16 -20 16 -60 l0 -54 -55 0 -55 0 0 60 0 60 39 0 c22 0 46 -3 55 -6z m3578
-76 l3 -73 58 3 57 2 1 -40 c1 -22 3 -44 4 -50 1 -5 3 -21 4 -35 1 -23 4 -25
56 -25 l55 0 0 -130 0 -130 54 0 53 0 7 -37 c3 -21 6 -53 6 -70 l0 -33 55 0
55 0 0 -92 c0 -136 1 -138 66 -138 l54 0 0 -135 0 -135 60 0 60 0 0 -60 0 -60
54 0 c60 0 66 -7 66 -87 l0 -42 58 -3 57 -3 5 -60 5 -60 58 -3 57 -3 0 -64 0
-65 65 0 65 0 0 -125 0 -125 55 0 55 0 0 -61 0 -62 -112 6 c-62 4 -114 7 -115
7 -1 0 -3 26 -5 58 l-3 57 -62 3 -63 3 0 64 c0 69 -7 98 -21 89 -5 -3 -9 0 -9
5 0 6 3 11 8 11 4 0 8 18 10 40 l2 40 -55 0 -55 0 0 60 0 60 -59 0 -59 0 -7
125 -7 126 -32 -3 c-17 -1 -66 -1 -109 0 l-79 2 4 60 c1 33 0 60 -4 60 -5 0
-8 32 -8 70 l0 70 -55 0 -55 0 0 60 0 60 -59 0 -59 0 -7 125 -7 125 -54 0
c-60 0 -58 -2 -56 87 l2 42 -63 3 -62 3 -3 137 -3 137 -54 -5 -55 -4 0 145 0
145 60 0 59 0 3 -72z m-5175 -440 c-2 -18 -4 -6 -4 27 0 33 2 48 4 33 2 -15 2
-42 0 -60z m126 75 c-13 -2 -35 -2 -50 0 -16 2 -5 4 22 4 28 0 40 -2 28 -4z
m2387 -2 c0 -4 -11 -6 -25 -3 -14 2 -25 6 -25 8 0 2 11 4 25 4 14 0 25 -4 25
-9z m17 -73 c-2 -18 -4 -6 -4 27 0 33 2 48 4 33 2 -15 2 -42 0 -60z m-2150
-135 c-2 -21 -4 -4 -4 37 0 41 2 58 4 38 2 -21 2 -55 0 -75z m2381 -400 c-15
-2 -42 -2 -60 0 -18 2 -6 4 27 4 33 0 48 -2 33 -4z m-3872 -615 l7 -58 123 0
124 0 0 -115 0 -115 60 0 60 0 0 100 0 100 200 0 200 0 0 -110 0 -110 69 0 68
0 6 68 c4 37 7 87 7 111 l0 44 68 -6 c37 -4 131 -7 210 -7 l142 0 0 -515 0
-515 -155 0 -155 0 0 60 0 60 -61 0 -61 0 4 55 3 55 -57 0 c-45 0 -57 -3 -61
-17 -3 -10 -5 18 -6 61 l-1 79 -130 -6 c-72 -4 -137 -4 -145 -1 -11 5 -15 22
-15 65 l0 58 -40 -5 c-23 -3 -52 -3 -65 0 -23 6 -25 11 -25 61 l0 55 -60 0
-60 0 0 63 0 62 -125 -4 -125 -3 0 150 0 150 -60 7 -60 7 0 82 c0 46 3 86 7
90 4 4 29 6 55 5 l47 -3 7 -58z m4872 -30 l3 -88 -28 0 c-15 0 -45 -3 -65 -6
l-38 -7 0 -148 0 -149 -130 0 -130 0 0 -61 0 -61 -60 4 -60 3 0 -57 0 -58 -55
0 -55 0 0 -60 0 -60 -102 -2 c-57 -1 -123 -3 -148 -3 l-45 -2 -3 -56 -3 -57
-59 0 -60 0 0 -55 0 -55 -59 0 -59 0 5 -60 6 -60 -162 0 -161 0 0 515 0 515
210 0 210 0 1 -27 c0 -16 2 -39 3 -53 1 -14 3 -49 4 -77 l2 -53 70 0 70 0 0
109 0 109 173 -3 c94 -2 183 -4 196 -4 20 -1 22 -4 16 -28 -3 -15 -3 -60 1
-100 l6 -74 57 3 56 3 3 118 3 117 129 0 c128 0 130 0 131 23 1 45 11 82 22
89 7 5 32 7 57 6 l45 -3 3 -87z m-1619 -648 l2 -580 -66 0 -65 0 0 -69 c0 -54
-3 -70 -16 -75 -9 -3 -344 -6 -745 -5 l-729 0 0 75 0 74 -70 0 -69 0 -1 408
c0 224 3 485 6 580 l7 172 872 0 872 0 2 -580z m-5664 560 c3 -5 1 -10 -4 -10
-6 0 -11 5 -11 10 0 6 2 10 4 10 3 0 8 -4 11 -10z m9555 -10 c0 -5 -4 -10 -10
-10 -5 0 -10 5 -10 10 0 6 5 10 10 10 6 0 10 -4 10 -10z m-6323 -866 c-3 -3
-12 -4 -19 -1 -8 3 -5 6 6 6 11 1 17 -2 13 -5z"/>
<path d="M4227 8038 c6 -96 11 -101 12 -15 0 42 -3 77 -7 77 -5 0 -7 -28 -5
-62z"/>
<path d="M10038 3943 c7 -3 16 -2 19 1 4 3 -2 6 -13 5 -11 0 -14 -3 -6 -6z"/>
<path d="M10008 3928 c5 -7 12 -24 15 -38 4 -23 4 -23 7 5 l3 30 7 -35 8 -35
-1 35 c-1 22 -7 34 -14 33 -7 -2 -13 2 -13 7 0 6 -5 10 -11 10 -8 0 -8 -4 -1
-12z"/>
<path d="M6424 3600 c0 -91 2 -128 3 -82 2 45 2 119 0 165 -1 45 -3 8 -3 -83z"/>
<path d="M501 4684 c0 -11 3 -14 6 -6 3 7 2 16 -1 19 -3 4 -6 -2 -5 -13z"/>
</g>
</svg>
